<svg id="Camada_1" data-name="Camada 1" xmlns="http://www.w3.org/2000/svg" xmlns:xlink="http://www.w3.org/1999/xlink" viewBox="0 0 673.09 312.18"><defs><style>.cls-1{fill:#fefefe;}.cls-2{mask:url(#mask);}.cls-3,.cls-4{fill:#fff;}.cls-4{fill-rule:evenodd;}.cls-5{filter:url(#luminosity-invert-noclip);}</style><filter id="luminosity-invert-noclip" x="0.46" y="-0.09" width="258" height="312.18" filterUnits="userSpaceOnUse" color-interpolation-filters="sRGB"><feColorMatrix values="-1 0 0 0 1 0 -1 0 0 1 0 0 -1 0 1 0 0 0 1 0" result="invert"/><feFlood flood-color="#fff" result="bg"/><feBlend in="invert" in2="bg"/></filter><mask id="mask" x="0" y="0" width="258" height="312.18" maskUnits="userSpaceOnUse"><g class="cls-5"><g transform="translate(-0.46 0.09)"><path class="cls-1" d="M129.49,36.15c49.58.41,91.42,35,92.24,92.88.71,50.65-41.86,91.82-92.69,91.63-50.53-.18-92.83-41.57-92-91.78C38.08,71.05,79.81,36.53,129.49,36.15Z"/></g></g></mask></defs><g class="cls-2"><path class="cls-3" d="M118.44-.09h13.42a15.15,15.15,0,0,0,6.7,0h1.22c4.69.7,9.45.62,14.13,1.56a127.39,127.39,0,0,1,66.23,35.22A127,127,0,0,1,256,103c3.92,19.2,3,38.37-1.52,57.38-8.52,35.47-24.41,67.47-45.6,97a207.38,207.38,0,0,1-27.32,31.47c-10.75,10-22.61,18.2-37.05,22.06-3.16.84-6.42.57-9.58,1.24H122.71c-18.58-1.79-33.06-11.69-46-24-21.32-20.2-37.49-44.21-50.79-70.28C15.35,197.17,7,175.73,2.86,152.87-4.34,113,4.59,77,30.44,45.64a125.27,125.27,0,0,1,55.71-39C96.46,3,106.94.4,117.92.19A.84.84,0,0,0,118.44-.09Z" transform="translate(-0.46 0.09)"/></g><path class="cls-4" d="M146.4,150.42h5v32c-.62-3.32-2.49-22.8-2.26-29-.63-.65-2.75-3-2.75-3m-37.52-34.19h0l-5.36-5.45c-7.14.09-30.12-2.34-37.5-3.63v41.16c36.89,3.64,56.25,4.57,77.86,3.88h.36Zm.26-11.48h41.21V64.83H109.14Zm-32,2.4c2.73.23,26.85,2.34,28.46,2.34l38.19,38.82h49.06V107.15Zm69.41,47.28s-22,1.5-40.74-.2c.38,22.77,3.12,34.47,3.57,37h40.92c-2-12-3.5-31.3-3.75-36.76" transform="translate(-0.46 0.09)"/><path class="cls-3" d="M307.88,245.39l28.43-16.48c5.15,12,14,20,30.28,20,15.66,0,19.57-6.18,19.57-11.75,0-8.85-8.24-12.36-29.87-18.33-21.42-6-42.44-16.27-42.44-43.88,0-27.81,23.49-43.88,48.42-43.88,23.69,0,42.23,11.33,52.73,32.55l-27.81,16.27c-4.94-10.3-11.74-16.68-24.92-16.68-10.3,0-15.45,5.15-15.45,10.92,0,6.59,3.5,11.12,25.95,17.92,21.84,6.59,46.36,14.21,46.36,44.7,0,27.81-22.25,44.29-53.57,44.29C335.28,281,315.92,266.61,307.88,245.39Z" transform="translate(-0.46 0.09)"/><path class="cls-3" d="M434.57,231.59V133.94h33v94.77c0,10.92,5.15,20.19,22.66,20.19s22.66-9.27,22.66-20.19V133.94h33v97.65c0,30.9-23.9,49.44-55.62,49.44S434.57,262.49,434.57,231.59Z" transform="translate(-0.46 0.09)"/><path class="cls-3" d="M562.3,245.39l28.43-16.48c5.15,12,14,20,30.28,20,15.66,0,19.57-6.18,19.57-11.75,0-8.85-8.24-12.36-29.87-18.33-21.42-6-42.44-16.27-42.44-43.88,0-27.81,23.49-43.88,48.41-43.88,23.7,0,42.24,11.33,52.74,32.55l-27.81,16.27c-4.94-10.3-11.74-16.68-24.93-16.68-10.3,0-15.45,5.15-15.45,10.92,0,6.59,3.51,11.12,26,17.92,21.84,6.59,46.35,14.21,46.35,44.7,0,27.81-22.25,44.29-53.56,44.29C589.7,281,570.33,266.61,562.3,245.39Z" transform="translate(-0.46 0.09)"/><path class="cls-3" d="M365.39,50.3V98.64h-4.93V87.72a23.25,23.25,0,0,1-20.79,12,25.24,25.24,0,0,1,0-50.47,23.25,23.25,0,0,1,20.79,12V50.3Zm-4.93,24.17a20.45,20.45,0,1,0-20.4,20.6A20.27,20.27,0,0,0,360.46,74.47Z" transform="translate(-0.46 0.09)"/><path class="cls-3" d="M422.91,50.3V118h-4.84V87.43a22.9,22.9,0,0,1-20.78,12.28,25.24,25.24,0,0,1,0-50.47,22.88,22.88,0,0,1,20.78,12.28V50.3Zm-4.84,24.17a20.5,20.5,0,1,0-20.49,20.6A20.34,20.34,0,0,0,418.07,74.47Z" transform="translate(-0.46 0.09)"/><path class="cls-3" d="M472.6,50.3V98.64h-4.84V89.46c-3.67,7.15-9.86,10.25-17.3,10.25-11.51,0-18.76-7.64-18.76-19.34V50.3h4.93V80.37c0,8.89,5.13,14.7,14.21,14.7,9.48,0,16.92-6.19,16.92-19.24V50.3Z" transform="translate(-0.46 0.09)"/><path class="cls-3" d="M481.2,34.74a3.87,3.87,0,1,1,3.86,3.86A3.86,3.86,0,0,1,481.2,34.74Zm1.45,15.56h4.83V98.64h-4.83Z" transform="translate(-0.46 0.09)"/><path class="cls-3" d="M528.86,55V86.46c0,8.51,4.54,8.7,14.4,7.83v4.35c-12.66,1.94-19.33-1.16-19.33-12.18V55H513.29V50.3h10.64V38.22l4.93-1.45V50.3h14.4V55Z" transform="translate(-0.46 0.09)"/><path class="cls-3" d="M592.76,74.67c0,.77-.1,1.54-.1,2.32H548.87c1.16,10.92,9.47,18.08,20.49,18.08,7.93,0,13.93-3.68,16.73-8.8l4.25,2.51c-4,6.57-11.5,10.93-21.07,10.93-14.89,0-25.43-10.64-25.43-25.24,0-14.21,10.25-25.23,25-25.23S592.76,61.42,592.76,74.67Zm-43.89-2.42h38.86c-1.06-11.8-9.37-18.37-18.85-18.37C557.86,53.88,549.84,61.52,548.87,72.25Z" transform="translate(-0.46 0.09)"/><path class="cls-3" d="M668.46,68V98.64h-4.84V68c0-9.18-5.31-14.11-12.86-14.11-8.12,0-14.5,5.41-14.5,17.79v27h-4.83V68c0-9.18-4.93-14.11-12.38-14.11-7.93,0-15,5.41-15,17.79v27h-4.84V50.3h4.84v8.32a16.87,16.87,0,0,1,15.56-9.38c7.06,0,12.57,3.48,15.08,9.86a17.62,17.62,0,0,1,16.15-9.86C661.11,49.24,668.46,55.91,668.46,68Z" transform="translate(-0.46 0.09)"/></svg>