<?xml version="1.0" encoding="iso-8859-1"?>
<!-- Generator: Adobe Illustrator 24.0.1, SVG Export Plug-In . SVG Version: 6.00 Build 0)  -->
<svg version="1.1" id="Camada_1" width="60" height="60" xmlns="http://www.w3.org/2000/svg" xmlns:xlink="http://www.w3.org/1999/xlink" x="0px" y="0px"
	 viewBox="0 0 50 50" style="enable-background:new 0 0 50 50;" xml:space="preserve">
<g>
	<path style="fill:#CAD0D7;" d="M0.01,48.914c0.314-0.405,0.721-0.52,1.23-0.499c0.889,0.037,1.781,0.007,2.671,0.005
		c0.207-0.17,0.457-0.143,0.697-0.144c1.085-0.004,2.17,0.004,3.254-0.004c0.534-0.004,0.572-0.052,0.589-0.587
		c0.008-0.257-0.027-0.52,0.076-0.769c0.03-0.058,0.075-0.101,0.132-0.131c0.217-0.093,0.446-0.078,0.673-0.078
		c2.633-0.002,5.267-0.002,7.9,0c0.227,0,0.456-0.016,0.675,0.072c0.06,0.029,0.107,0.072,0.14,0.13
		c0.117,0.263,0.095,0.544,0.084,0.817c-0.015,0.402,0.168,0.561,0.555,0.54c0.178-0.01,0.357,0,0.536,0
		c8.645,0,17.291-0.001,25.936,0.003c0.319,0,0.655-0.069,0.942,0.15c0.976,0.002,1.952,0.003,2.928,0.006
		c0.587,0.002,0.977,0.32,0.972,0.787c-0.005,0.465-0.393,0.774-0.985,0.774c-13.451,0.001-26.901,0.001-40.352,0.001
		c-2.505,0-5.01-0.014-7.514,0.012c-0.488,0.005-0.842-0.142-1.138-0.5C0.01,49.304,0.01,49.109,0.01,48.914z"/>
	<path style="fill:#FA6C51;" d="M1.591,27.34c0.777-2.083,1.554-4.165,2.331-6.248c0.139-0.136,0.317-0.153,0.498-0.161
		c0.163-0.007,0.325-0.005,0.488-0.005c13.399,0,26.798-0.001,40.197,0.003c0.333,0,0.689-0.083,0.985,0.163
		c0.777,2.083,1.554,4.165,2.331,6.248c-0.124,0.13-0.289,0.138-0.451,0.148c-0.179,0.011-0.358,0.007-0.537,0.007
		c-14.951,0-29.902,0.001-44.854-0.004C2.247,27.491,1.891,27.58,1.591,27.34z"/>
	<path style="fill:#EFC7A4;" d="M46.09,21.092c-6.019-0.002-12.039-0.006-18.058-0.006c-8.037,0-16.073,0.004-24.11,0.006
		c-0.002-1.268-0.007-2.537-0.004-3.805c0.001-0.541,0.336-0.878,0.869-0.887c0.341-0.006,0.683-0.001,1.024-0.001
		c13.057,0,26.114,0.005,39.171-0.015c0.713-0.001,1.167,0.378,1.129,1.147C46.053,18.716,46.092,19.905,46.09,21.092z"/>
	<path style="fill:#EFC7A4;" d="M46.089,32.018c0,4.949,0,9.899,0,14.848c-0.267,0.221-0.588,0.154-0.891,0.154
		c-6.648,0.004-13.295,0.003-19.943,0.003c-2.162,0-4.323,0.002-6.485-0.002c-0.272-0.001-0.558,0.044-0.793-0.158l-0.006,0.001
		c-0.14-0.157-0.149-0.352-0.149-0.546c0-0.854-0.018-1.707,0.009-2.561c-0.016-0.534-0.016-1.067,0-1.601
		c-0.029-3.198-0.009-6.397-0.01-9.595c0-0.146,0.01-0.292,0.063-0.431c0.085-0.193,0.264-0.222,0.442-0.244
		c0.533-0.068,1.052-0.199,1.548-0.404c0.5-0.206,0.911-0.073,1.29,0.266c0.03,0.054,0.05,0.112,0.063,0.172
		c0.066,1.072,0.026,2.144,0.027,3.216c0.002,1.819,0.021,3.639-0.01,5.458c0.023,0.683,0,1.366,0.012,2.05
		c0.012,0.718,0.214,0.931,0.939,0.935c2.083,0.012,4.165,0.004,6.248,0.004c3.823,0.001,7.647,0,11.47,0
		c0.195,0,0.391,0.007,0.585-0.01c0.517-0.045,0.726-0.249,0.747-0.774c0.03-0.731-0.009-1.464,0.018-2.196
		c-0.028-2.683-0.009-5.365-0.009-8.048c0-0.146,0.01-0.293,0.065-0.431c0.099-0.21,0.301-0.228,0.492-0.245
		c0.682-0.062,1.298-0.49,1.96-0.479c0.644,0.01,1.247,0.414,1.913,0.477C45.83,31.892,45.975,31.912,46.089,32.018z"/>
	<path style="fill:#E8553E;" d="M1.591,27.34c7.496-0.002,14.992-0.005,22.488-0.005c8.114,0,16.228,0.003,24.342,0.005
		c0.006,0.403,0.017,0.806,0.018,1.209c0.002,0.875-0.34,1.381-1.156,1.694c-0.378,0.145-0.773,0.219-1.179,0.23
		c-0.809,0.22-1.483-0.088-2.005-0.648c-0.321-0.345-0.424-0.29-0.701,0.02c-0.518,0.582-1.241,0.722-1.99,0.745
		c-0.84-0.03-1.613-0.223-2.161-0.926c-0.147-0.188-0.25-0.159-0.37,0.015c-0.827,1.19-3.424,1.227-4.296,0.012
		c-0.146-0.203-0.257-0.202-0.402-0.001c-0.861,1.198-3.462,1.196-4.296-0.011c-0.121-0.175-0.236-0.213-0.368-0.015
		c-0.822,1.231-3.522,1.222-4.328,0.004c-0.094-0.142-0.172-0.197-0.337-0.042c-1.154,1.083-2.376,1.257-3.781,0.561
		c-0.296-0.176-0.501-0.45-0.752-0.745c-0.581,0.844-1.41,1.126-2.361,1.144c-0.842-0.032-1.613-0.231-2.156-0.942
		c-0.124-0.162-0.203-0.15-0.336-0.001c-0.969,1.091-2.162,1.12-3.44,0.698c-0.365-0.12-0.656-0.358-0.886-0.664
		c-0.123-0.164-0.219-0.216-0.37-0.021c-0.547,0.706-1.319,0.903-2.162,0.932c-0.856-0.031-1.642-0.227-2.19-0.957
		c-0.173-0.23-0.259-0.073-0.359,0.059c-0.412,0.543-1.006,0.741-1.638,0.863c-0.178,0.034-0.356,0.041-0.511-0.082
		c-0.537-0.025-1.057-0.123-1.525-0.402c-0.519-0.309-0.843-0.735-0.814-1.377C1.59,28.243,1.585,27.791,1.591,27.34z"/>
	<path style="fill:#EFC7A4;" d="M3.923,46.866c0-4.949,0-9.899,0-14.848c0.753-0.242,1.539-0.367,2.283-0.644
		c0.09-0.033,0.194,0.004,0.286,0.038c0.61,0.227,1.23,0.415,1.879,0.496c0.133,0.017,0.249,0.073,0.314,0.204
		c0.06,0.138,0.072,0.284,0.072,0.43c0,3.201,0.021,6.403-0.009,9.604c0.014,0.534,0.016,1.069,0,1.603
		c0.026,0.856,0.009,1.712,0.009,2.568c0,0.194-0.009,0.39-0.15,0.548L8.6,46.864c-0.171,0.156-0.384,0.154-0.594,0.155
		c-1.163,0.005-2.326,0.005-3.488,0C4.308,47.018,4.093,47.025,3.923,46.866z"/>
	<path style="fill:#E3B692;" d="M17.978,46.864c9.37,0.001,18.741,0.002,28.111,0.003c0.004,0.518,0.008,1.036,0.012,1.553
		c-9.231,0.002-18.462,0.002-27.693,0.012c-0.347,0-0.459-0.112-0.437-0.448C17.995,47.612,17.977,47.237,17.978,46.864z"/>
	<path style="fill:#E3B692;" d="M8.586,32.019c-0.729,0.039-1.398-0.203-2.059-0.461c-0.199-0.078-0.348-0.071-0.544,0.004
		c-0.662,0.254-1.331,0.499-2.06,0.456c-0.005-0.516-0.01-1.031-0.015-1.547c0.965-0.054,1.83-0.296,2.343-1.306
		c0.512,0.985,1.373,1.261,2.355,1.306c0.233,0.489,0.175,0.987,0.048,1.488C8.632,31.979,8.609,31.999,8.586,32.019z"/>
	<path style="fill:#E3B692;" d="M41.405,30.471c0.965-0.053,1.829-0.298,2.341-1.307c0.512,0.989,1.376,1.261,2.357,1.307
		c-0.005,0.516-0.01,1.031-0.015,1.547c-0.73,0.043-1.398-0.202-2.06-0.456c-0.197-0.075-0.345-0.082-0.544-0.004
		c-0.661,0.257-1.33,0.5-2.059,0.461c-0.022-0.02-0.045-0.04-0.067-0.06C41.23,31.458,41.172,30.96,41.405,30.471z"/>
	<path style="fill:#E3B692;" d="M3.923,46.866c1.559-0.001,3.118-0.002,4.677-0.003c0.001,0.356-0.018,0.713,0.008,1.067
		c0.026,0.364-0.071,0.513-0.476,0.505c-1.406-0.027-2.813-0.013-4.22-0.015C3.915,47.902,3.919,47.384,3.923,46.866z"/>
	<path style="fill:#E4E8EB;" d="M8.606,46.864c0.001-1.045,0.002-2.09,0.004-3.135c0.189-0.167,0.422-0.147,0.647-0.147
		c2.689-0.004,5.377-0.004,8.066,0c0.224,0,0.458-0.019,0.647,0.147c0.001,1.045,0.003,2.09,0.004,3.135
		C14.85,46.864,11.728,46.864,8.606,46.864z"/>
	<path style="fill:#5E9CEA;" d="M21.113,40.617c0.002-2.932,0.004-5.863,0.005-8.795c0.203-0.179,0.436-0.102,0.65-0.052
		c0.975,0.228,1.905,0.07,2.803-0.323c0.308-0.134,0.585-0.122,0.888,0.012c1.256,0.555,2.52,0.557,3.777-0.001
		c0.303-0.135,0.581-0.147,0.888-0.009c1.271,0.571,2.55,0.566,3.821,0c0.306-0.136,0.584-0.126,0.888,0.009
		c1.256,0.562,2.519,0.548,3.778,0.004c0.246-0.106,0.492-0.19,0.749-0.066c0.534,0.257,1.105,0.374,1.681,0.477
		c0.129,0.023,0.255,0.051,0.352,0.149c0,0,0.031-0.004,0.031-0.004c-0.005,2.542-0.01,5.084-0.016,7.627
		c-0.001,0.324-0.008,0.647-0.012,0.971c-0.186,0.176-0.422,0.154-0.647,0.154c-6.33,0.004-12.66,0.004-18.99,0
		C21.535,40.771,21.299,40.793,21.113,40.617z"/>
	<path style="fill:#5E9CEA;" d="M8.615,42.179c-0.004-3.16-0.008-6.32-0.014-9.48c0-0.227-0.01-0.453-0.015-0.68
		c0,0,0.03,0.004,0.03,0.004c0.751-0.254,1.539-0.373,2.285-0.647c0.168-0.062,0.349,0.053,0.513,0.121
		c1.25,0.518,2.5,0.522,3.746-0.002c0.32-0.135,0.618-0.149,0.938-0.004c0.582,0.265,1.219,0.329,1.835,0.471
		c0.019,0.019,0.039,0.038,0.058,0.056c-0.005,2.901-0.01,5.801-0.016,8.702c-0.001,0.486-0.008,0.972-0.012,1.458
		c-0.186,0.176-0.422,0.153-0.647,0.154c-2.685,0.004-5.37,0.004-8.054,0C9.037,42.333,8.801,42.355,8.615,42.179z"/>
	<path style="fill:#4A88DA;" d="M21.113,40.617c6.761,0,13.522,0,20.283,0c0.004,0.699,0.011,1.398,0.012,2.097
		c0.001,0.777-0.243,1.024-1.008,1.025c-3.122,0.001-6.243,0-9.365,0c-2.975,0-5.951,0-8.926,0c-0.765,0-1.009-0.248-1.008-1.025
		C21.102,42.015,21.109,41.316,21.113,40.617z"/>
	<path style="fill:#4A88DA;" d="M41.394,32.023c-0.686-0.028-1.353-0.152-1.969-0.463c-0.261-0.132-0.473-0.113-0.733,0.007
		c-1.31,0.606-2.632,0.606-3.942-0.001c-0.26-0.12-0.47-0.129-0.733-0.006c-1.326,0.62-2.662,0.613-3.985-0.01
		c-0.245-0.116-0.446-0.109-0.689,0.005c-1.325,0.619-2.658,0.619-3.987,0.005c-0.198-0.091-0.375-0.161-0.598-0.051
		c-1.057,0.521-2.155,0.655-3.3,0.331c-0.106-0.03-0.226-0.013-0.34-0.018c-0.01-0.031-0.019-0.063-0.029-0.094
		c-0.213-0.552-0.242-1.101,0.02-1.647c0.739,0.353,1.5,0.485,2.312,0.288c0.681-0.165,1.231-0.487,1.57-1.201
		c0.515,0.966,1.361,1.287,2.349,1.285c0.973-0.003,1.825-0.284,2.343-1.271c0.511,0.952,1.357,1.274,2.345,1.271
		c0.973-0.003,1.825-0.286,2.341-1.27c0.512,0.954,1.359,1.274,2.347,1.27c0.972-0.004,1.824-0.286,2.342-1.276
		c0.503,0.974,1.37,1.239,2.346,1.295C41.402,30.988,41.398,31.506,41.394,32.023z"/>
	<path style="fill:#4A88DA;" d="M8.615,42.179c3.116,0,6.232,0,9.348,0c0.002,0.517,0.004,1.034,0.006,1.55c-3.12,0-6.24,0-9.359,0
		C8.611,43.213,8.613,42.696,8.615,42.179z"/>
	<path style="fill:#E3B692;" d="M21.109,30.081c-0.007,0.549-0.013,1.098-0.02,1.647c-0.554-0.314-1.088-0.185-1.637,0.037
		c-0.463,0.188-0.954,0.283-1.461,0.253c0,0-0.03,0.004-0.03,0.004c-0.202-0.519-0.224-1.036,0.01-1.552
		c0.962-0.054,1.824-0.295,2.327-1.283C20.552,29.526,20.764,29.869,21.109,30.081z"/>
	<path style="fill:#4A88DA;" d="M17.972,30.471c-0.003,0.517-0.007,1.035-0.01,1.552c-0.729,0.03-1.402-0.203-2.062-0.467
		c-0.2-0.08-0.351-0.077-0.545,0.009c-1.374,0.611-2.756,0.611-4.13,0c-0.194-0.086-0.345-0.089-0.545-0.009
		c-0.66,0.264-1.333,0.496-2.062,0.467c-0.003-0.517-0.007-1.035-0.01-1.552c0.96-0.061,1.826-0.299,2.332-1.298
		c0.513,0.97,1.363,1.284,2.351,1.279c0.971-0.004,1.822-0.287,2.336-1.277C16.129,30.152,16.996,30.415,17.972,30.471z"/>
</g>
<g>
	<path style="fill:#1565D7;" d="M16.992,15.495c0-0.042,0-0.083,0-0.125c0.034-0.236,0.023-0.475,0.057-0.711
		c0.099-0.696,0.315-1.358,0.605-1.996c0.401-0.881,0.938-1.669,1.626-2.352c1.268-1.258,2.779-2.041,4.552-2.284
		c0.555-0.076,1.12-0.057,1.682-0.039c0.444,0.014,0.881,0.052,1.314,0.155c1.238,0.294,2.35,0.842,3.325,1.658
		c1.3,1.088,2.172,2.457,2.627,4.089c0.137,0.493,0.211,0.994,0.222,1.508c0.012,0.531,0.009,1.06-0.02,1.59
		c-0.003,0.052,0.002,0.106-0.047,0.142c-0.079,0.034-0.13-0.017-0.177-0.064c-0.582-0.579-1.166-1.155-1.738-1.743
		c-0.059-0.06-0.116-0.118-0.191-0.156c-0.13-0.121-0.214-0.28-0.346-0.401c-0.62-0.566-1.33-0.705-2.115-0.432
		c-0.384,0.133-0.733,0.349-1.097,0.528c-0.154,0.076-0.31,0.149-0.467,0.217c-0.053,0.023-0.105,0.047-0.165,0.039
		c-0.08-0.021-0.131-0.082-0.186-0.137c-0.902-0.901-1.804-1.803-2.705-2.705c-0.095-0.095-0.174-0.208-0.292-0.279
		c-0.115-0.098-0.195-0.229-0.306-0.331c-0.337-0.308-0.729-0.49-1.184-0.536c-0.326-0.061-0.635,0.022-0.927,0.142
		c-0.754,0.308-1.172,0.879-1.269,1.691c-0.027,0.224-0.022,0.446-0.023,0.67c-0.003,0.64-0.001,1.28,0,1.92
		c0,0.083-0.004,0.166-0.016,0.249c-0.004,0.819,0,1.637-0.002,2.455c0,0.074,0.017,0.144,0.03,0.215
		c0.014,0.292,0.065,0.574,0.194,0.842c0.131,0.272,0.312,0.5,0.539,0.696c0.047,0.041,0.097,0.078,0.134,0.129
		c0.059,0.114,0.165,0.184,0.253,0.272c1.126,1.125,2.253,2.25,3.376,3.378c0.049,0.049,0.132,0.095,0.073,0.19
		c-0.734,0.008-1.433-0.164-2.115-0.419c-0.91-0.341-1.745-0.814-2.476-1.457c-1.451-1.276-2.362-2.861-2.685-4.773
		c-0.04-0.234-0.023-0.475-0.058-0.71c0-0.042,0-0.083,0-0.125c0.026-0.125,0.026-0.25,0-0.375c0-0.083,0-0.167,0-0.25
		C17.018,15.745,17.018,15.62,16.992,15.495z"/>
	<path style="fill:#004A93;" d="M32.906,17.123c-0.04,0.531-0.175,1.043-0.363,1.536c-1.03,2.703-2.948,4.42-5.752,5.139
		c-0.366,0.094-0.742,0.152-1.122,0.17c-0.029,0.001-0.064-0.008-0.081,0.029c-0.406,0-0.813,0-1.219,0
		c-0.011-0.012-0.032-0.014-0.033-0.035c-0.042-0.046-0.083-0.094-0.127-0.138c-1.164-1.164-2.328-2.328-3.491-3.492
		c-0.051-0.051-0.114-0.093-0.134-0.169c0.06-0.028,0.113-0.004,0.163,0.025c0.307,0.18,0.641,0.265,0.994,0.288
		c0.404-0.008,0.781-0.107,1.125-0.326c0.026-0.017,0.057-0.025,0.089-0.028c0.078,0,0.135,0.047,0.196,0.086
		c0.632,0.407,1.293,0.477,1.989,0.18c0.325-0.139,0.638-0.304,0.953-0.463c0.487-0.246,0.98-0.48,1.469-0.72
		c0.172-0.109,0.365-0.176,0.546-0.268c0.635-0.325,1.279-0.63,1.914-0.954c0.938-0.479,1.353-1.674,0.873-2.656
		c-0.02-0.059-0.067-0.114-0.029-0.182c0.073-0.013,0.096,0.054,0.132,0.09c0.59,0.587,1.179,1.176,1.768,1.764
		C32.81,17.043,32.859,17.082,32.906,17.123z"/>
	<path style="fill:#3C77C2;" d="M16.992,15.495c0.058,0.125,0.043,0.25,0,0.375C16.992,15.745,16.992,15.62,16.992,15.495z"/>
	<path style="fill:#3C77C2;" d="M16.992,16.12c0.043,0.125,0.058,0.25,0,0.375C16.992,16.37,16.992,16.245,16.992,16.12z"/>
	<path style="fill:#FD9600;" d="M22.004,11.085c0.594,0.051,1.05,0.345,1.418,0.798c0.023,0.028,0.046,0.055,0.069,0.082
		c0.302,0.31,0.408,0.695,0.41,1.113c0.005,0.818,0.002,1.636,0.001,2.454c0,0.092,0.016,0.19-0.062,0.265
		c-0.062,0.048-0.136,0.044-0.209,0.044c-0.56,0.001-1.119,0.001-1.679,0c-0.078,0-0.157,0.004-0.222-0.051
		c-0.053-0.059-0.053-0.133-0.053-0.206c-0.002-1.429-0.002-2.858,0-4.287C21.679,11.068,21.718,11.045,22.004,11.085z"/>
	<path style="fill:#FEFEFE;" d="M30.866,15.145c0.025,0.053,0.049,0.107,0.074,0.16c-0.028,0.071-0.095,0.093-0.155,0.122
		c-0.881,0.426-1.759,0.859-2.639,1.288c-0.421,0.205-0.842,0.412-1.262,0.619c-0.056,0.027-0.111,0.058-0.176,0.059
		c-0.016-0.001-0.032-0.005-0.046-0.012c-0.069-0.045-0.097-0.12-0.132-0.189c-0.241-0.477-0.477-0.957-0.717-1.435
		c-0.037-0.073-0.085-0.145-0.059-0.235c0.026-0.056,0.075-0.085,0.126-0.111c0.19-0.097,0.38-0.192,0.571-0.287
		c0.057-0.028,0.115-0.05,0.179-0.029c0.504-0.244,1.006-0.494,1.513-0.732c0.799-0.374,1.552-0.292,2.253,0.246
		C30.588,14.756,30.729,14.948,30.866,15.145z"/>
	<path style="fill:#FDBF07;" d="M22.004,11.085c-0.271,0.01-0.261-0.048-0.261,0.26c0.001,1.477,0.001,2.953,0.002,4.43
		c-0.036,0.049-0.09,0.047-0.141,0.047c-0.586,0.002-1.172,0.002-1.758,0c-0.057,0-0.116,0.002-0.155-0.053
		c0.004-0.966-0.046-1.934,0.025-2.898c0.065-0.887,0.865-1.684,1.751-1.783C21.646,11.068,21.825,11.026,22.004,11.085z"/>
	<path style="fill:#FEFEFE;" d="M21.743,20.523c-0.426,0.008-0.805-0.133-1.158-0.36c-0.46-0.34-0.759-0.783-0.856-1.352
		c-0.016-0.091-0.015-0.185-0.021-0.278c-0.023-0.103-0.01-0.207-0.01-0.311c-0.001-0.76,0.002-1.52-0.004-2.28
		c-0.001-0.127,0.039-0.155,0.158-0.154c0.578,0.006,1.155,0.002,1.733,0.003c0.202,0,0.223,0.017,0.224,0.222
		c0.003,0.833,0.001,1.666,0.001,2.498c0,0.593,0.001,1.187-0.001,1.78C21.809,20.375,21.819,20.462,21.743,20.523z"/>
	<path style="fill:#004A93;" d="M26.63,15.095c-0.286,0.145-0.573,0.29-0.859,0.435c-0.038,0.059-0.094,0.095-0.155,0.126
		c-0.512,0.256-1.024,0.512-1.537,0.764c-0.085,0.042-0.182,0.125-0.279,0.01c-0.026-0.217-0.075-0.434,0.034-0.643
		c0.001-0.941,0.012-1.882-0.001-2.823c-0.005-0.362-0.157-0.69-0.341-1c0.033,0.025,0.068,0.047,0.097,0.076
		c0.987,0.986,1.974,1.973,2.96,2.96C26.578,15.03,26.603,15.064,26.63,15.095z"/>
	<path style="fill:#DFDFDF;" d="M23.833,15.788c0.003,0.225,0.007,0.451,0.01,0.676c0.005,0.08-0.06,0.104-0.112,0.133
		c-0.104,0.059-0.213,0.109-0.32,0.163c-0.928,0.469-1.345,1.532-0.982,2.504c0.016,0.044,0.029,0.089,0.043,0.133
		c0.107,0.22,0.238,0.424,0.42,0.593c0.044,0.041,0.095,0.085,0.073,0.159c-0.368,0.252-0.769,0.399-1.223,0.373
		c0.001-1.52,0-3.041,0.004-4.561c0-0.129-0.046-0.158-0.164-0.157c-0.567,0.005-1.135,0.006-1.703-0.001
		c-0.13-0.001-0.168,0.039-0.167,0.168c0.005,0.791,0.003,1.583,0.002,2.374c0,0.062-0.006,0.124-0.009,0.187
		c-0.006-0.041-0.016-0.081-0.016-0.122c0-0.881,0-1.762,0.001-2.642c0.685,0.02,1.369,0.009,2.054,0.006
		c0.228,0.029,0.456,0.011,0.684,0.012C22.897,15.791,23.365,15.788,23.833,15.788z"/>
	<path style="fill:#C22363;" d="M22.965,20.15c-0.209-0.214-0.417-0.428-0.529-0.714c0.018-0.091,0.096-0.118,0.166-0.15
		c0.664-0.312,1.32-0.64,1.978-0.962c0.626-0.306,1.257-0.602,1.877-0.92c0.066-0.034,0.134-0.091,0.216-0.03l0.009-0.003
		c0.08,0.023,0.111,0.091,0.142,0.156c0.242,0.513,0.492,1.021,0.748,1.528c0.03,0.06,0.064,0.122,0.018,0.191
		c-0.494,0.273-1.009,0.502-1.513,0.754c-0.361,0.181-0.711,0.394-1.095,0.519C24.251,20.754,23.573,20.627,22.965,20.15z"/>
	<path style="fill:#DFDFDF;" d="M27.59,19.244c-0.276-0.569-0.553-1.137-0.829-1.706c-0.027-0.056-0.052-0.112-0.078-0.169
		c0.857-0.423,1.712-0.848,2.57-1.268c0.517-0.253,1.038-0.5,1.557-0.748c0.042-0.02,0.087-0.033,0.13-0.049
		c0.495,0.919,0.133,2.163-0.815,2.685c-0.658,0.362-1.343,0.673-2.017,1.006C27.936,19.08,27.763,19.161,27.59,19.244z"/>
	<path style="fill:#FE4680;" d="M26.674,17.373c-0.043,0.018-0.088,0.033-0.129,0.053c-1.238,0.607-2.476,1.214-3.714,1.821
		c-0.131,0.064-0.263,0.126-0.394,0.189c-0.468-1.018-0.087-2.169,0.897-2.706c0.168-0.092,0.34-0.178,0.51-0.266
		c0.586-0.287,1.172-0.573,1.758-0.86c0.055-0.027,0.113-0.049,0.17-0.073C26.072,16.145,26.373,16.759,26.674,17.373z"/>
</g>
<g>
</g>
<g>
</g>
<g>
</g>
<g>
</g>
<g>
</g>
<g>
</g>
<g>
</g>
<g>
</g>
<g>
</g>
<g>
</g>
<g>
</g>
<g>
</g>
<g>
</g>
<g>
</g>
<g>
</g>
</svg>
