<?xml version="1.0" encoding="utf-8"?>
<!-- Generator: Adobe Illustrator 24.0.1, SVG Export Plug-In . SVG Version: 6.00 Build 0)  -->
<svg version="1.1" id="Camada_1" widht="60" height="60" xmlns="http://www.w3.org/2000/svg" xmlns:xlink="http://www.w3.org/1999/xlink" x="0px" y="0px"
	 viewBox="0 0 60 60" style="enable-background:new 0 0 60 60;" xml:space="preserve">
<style type="text/css">
	.st0{fill:#CAD0D7;}
	.st1{fill:#F5FAFF;}
	.st2{opacity:0.1;}
	.st3{fill:#62A4FB;}
	.st4{fill:#A2F5C3;}
	.st5{fill:#98EAB6;}
	.st6{fill-rule:evenodd;clip-rule:evenodd;fill:#8B808E;}
	.st7{fill:#FFFFFF;}
</style>
<rect x="5" y="58.1" class="st0" width="50" height="1.9"/>
<rect x="7.2" y="13.8" class="st1" width="45.6" height="44.4"/>
<rect x="7.2" y="27.4" class="st2" width="45.6" height="2.2"/>
<rect x="7.2" y="13.8" class="st3" width="45.6" height="11.9"/>
<rect x="5.5" y="24" class="st4" width="49" height="3.4"/>
<rect x="22.4" y="8.8" class="st5" width="15.1" height="15.2"/>
<rect x="19.1" y="33.3" class="st6" width="21.9" height="24.8"/>
<rect x="19.1" y="33.2" class="st0" width="21.9" height="5.6"/>
<g>
	<path class="st7" d="M31.3,11c0.2,0,0.3,0.1,0.5,0.1c1.4,0.3,2.5,1.5,2.7,2.8c0.3,1.8-0.8,3.5-2.6,3.9c-0.3,0.1-0.6,0.1-0.8,0.1
		c-0.4,0-0.8,0-1.2,0c-0.1,0-0.1,0-0.1-0.1c0-0.4,0-0.7,0-1.1c0-0.1,0-0.1,0.1-0.1c0.4,0,0.8,0,1.2,0c1,0,1.9-0.7,2.2-1.7
		c0.2-1.1-0.3-2.3-1.4-2.7c-0.6-0.2-1.2-0.2-1.7,0.1c-0.1,0.1-0.3,0.1-0.4,0.1c-0.5,0-1,0-1.5,0c0.1-0.2,0.3-0.4,0.5-0.6
		c0.6-0.5,1.2-0.8,2-0.9c0,0,0,0,0,0c0,0,0,0,0.1,0C30.9,11,31.1,11,31.3,11C31.3,11,31.3,11,31.3,11z"/>
	<path class="st7" d="M31.3,11c-0.1,0-0.2,0-0.4,0c0,0-0.1,0-0.1,0C30.9,11,31.1,11,31.3,11z"/>
	<path class="st7" d="M29.4,18.4c-0.3-0.1-0.7-0.2-1-0.3c-0.1,0-0.1-0.1-0.1-0.1c0-0.6,0-1.1,0-1.7c0-0.1,0-0.1-0.1-0.1
		c-1.4-0.3-2.5-1.4-2.7-2.7c0-0.1,0-0.2,0-0.3c0-0.2,0.1-0.3,0.3-0.4c0,0,0.1,0,0.1,0c2,0,4,0,6,0c0.1,0,0.2,0,0.2,0.1
		c0.1,0.1,0.2,0.2,0.2,0.4c-0.1,0.5-0.2,0.9-0.5,1.3c-0.5,0.8-1.2,1.3-2.1,1.6c-0.1,0-0.1,0-0.2,0c-0.1,0-0.1,0-0.1,0.1
		c0,0.7,0,1.3,0,2C29.4,18.3,29.4,18.4,29.4,18.4z"/>
	<path class="st7" d="M28,17.3c0,0.2,0,0.4,0,0.5c0,0.1,0,0.1-0.1,0.1c-0.2,0.1-0.2,0.2-0.1,0.4c0.1,0.1,0.2,0.1,0.4,0.2
		c0.9,0.2,1.7,0.5,2.5,0.9c0.5,0.2,0.9,0.5,1.3,0.9c0.3,0.2,0.3,0.6,0.1,0.9c-0.2,0.3-0.6,0.3-0.9,0.1c-0.3-0.2-0.7-0.5-1-0.7
		c-0.7-0.4-1.4-0.6-2.1-0.8c-0.2-0.1-0.4-0.1-0.6-0.2c-0.5-0.3-0.8-0.8-0.8-1.4c0-0.4,0.1-0.8,0.4-1.1c0.2-0.2,0.5-0.4,0.8-0.4
		c0.1,0,0.1,0,0.1,0.1C28,16.9,28,17.1,28,17.3z"/>
	<path class="st7" d="M28.9,21.8c-0.3,0-0.6,0-1,0c-0.2,0-0.3-0.1-0.2-0.3c0.1-0.3,0.3-0.6,0.6-0.8c0.1,0,0.1-0.1,0.1-0.1
		c0-0.1,0-0.3,0-0.4c0,0,0-0.1,0.1-0.1c0.3,0.1,0.6,0.2,0.9,0.3c0.1,0,0.1,0.1,0.1,0.1c0,0.1,0,0.2,0.1,0.2c0.3,0.2,0.5,0.4,0.5,0.8
		c0,0.2,0,0.3-0.2,0.3C29.5,21.8,29.2,21.8,28.9,21.8z"/>
</g>
</svg>
