<?xml version="1.0" encoding="iso-8859-1"?>
<!-- Generator: Adobe Illustrator 24.0.1, SVG Export Plug-In . SVG Version: 6.00 Build 0)  -->
<svg version="1.1" id="Camada_1" width="60" height="60" xmlns="http://www.w3.org/2000/svg" xmlns:xlink="http://www.w3.org/1999/xlink" x="0px" y="0px"
	 viewBox="0 0 50 50" style="enable-background:new 0 0 50 50;" xml:space="preserve">
<g>
	<rect x="2.143" y="18.571" style="fill:#CEDEE7;" width="45.714" height="31.429"/>
	<rect y="18.571" style="fill:#5485E5;" width="50" height="8.571"/>
	<rect x="34.643" y="18.571" style="opacity:0.1;" width="8.571" height="31.429"/>
	<rect x="6.786" y="18.571" style="opacity:0.1;" width="8.571" height="31.429"/>
	<rect x="11.25" y="12.143" style="fill:#CEDEE7;" width="27.5" height="37.857"/>
	<rect x="9.286" y="12.143" style="fill:#5485E5;" width="31.429" height="11.786"/>
	<rect x="13.214" y="16.786" style="fill:#0C59CA;" width="23.571" height="9.643"/>
	<rect x="13.214" y="16.786" style="fill:#FFFFFF;" width="8.929" height="9.643"/>
	<path style="fill-rule:evenodd;clip-rule:evenodd;fill:#1565D7;" d="M18.373,22.663h0.214v1.366
		c-0.026-0.142-0.106-0.973-0.096-1.239C18.464,22.762,18.373,22.663,18.373,22.663 M16.772,21.204L16.772,21.204l-0.228-0.233
		c-0.305,0.004-1.285-0.1-1.6-0.155v1.756c1.574,0.155,2.4,0.195,3.322,0.165h0.015L16.772,21.204z M16.784,20.714h1.758v-1.703
		h-1.758V20.714z M15.42,20.817c0.117,0.01,1.146,0.1,1.215,0.1l1.629,1.656h2.093v-1.756H15.42z M18.381,22.834
		c0,0-0.939,0.064-1.738-0.009c0.016,0.971,0.133,1.471,0.152,1.577h1.746C18.458,23.892,18.392,23.067,18.381,22.834"/>
	<rect x="24.286" y="20.357" style="fill-rule:evenodd;clip-rule:evenodd;fill:#FFFFFF;" width="10.357" height="0.714"/>
	<rect x="26.25" y="22.143" style="fill-rule:evenodd;clip-rule:evenodd;fill:#FFFFFF;" width="6.429" height="0.714"/>
	<rect x="18.036" y="36.071" style="fill-rule:evenodd;clip-rule:evenodd;fill:#655E67;" width="13.929" height="13.929"/>
	<rect x="24.286" y="35" style="fill-rule:evenodd;clip-rule:evenodd;fill:#CEDEE7;" width="1.429" height="15"/>
	<rect x="16.786" y="33.929" style="fill-rule:evenodd;clip-rule:evenodd;fill:#8B808E;" width="16.429" height="2.5"/>
	<g>
		<path style="fill-rule:evenodd;clip-rule:evenodd;fill:#CEDEE7;" d="M22.946,44.643L22.946,44.643
			c-0.344,0-0.625-0.281-0.625-0.625v-1.607c0-0.344,0.281-0.625,0.625-0.625l0,0c0.344,0,0.625,0.281,0.625,0.625v1.607
			C23.571,44.362,23.29,44.643,22.946,44.643z"/>
		<path style="fill-rule:evenodd;clip-rule:evenodd;fill:#CEDEE7;" d="M27.054,44.643L27.054,44.643
			c-0.344,0-0.625-0.281-0.625-0.625v-1.607c0-0.344,0.281-0.625,0.625-0.625l0,0c0.344,0,0.625,0.281,0.625,0.625v1.607
			C27.679,44.362,27.397,44.643,27.054,44.643z"/>
	</g>
</g>
</svg>
