<?xml version="1.0" encoding="utf-8"?>
<!-- Generator: Adobe Illustrator 25.2.1, SVG Export Plug-In . SVG Version: 6.00 Build 0)  -->
<svg version="1.1" id="Camada_1" xmlns="http://www.w3.org/2000/svg" xmlns:xlink="http://www.w3.org/1999/xlink" x="0px" y="0px"
	 width="60px" height="60px" viewBox="0 0 60 60" style="enable-background:new 0 0 60 60;" xml:space="preserve">
<style type="text/css">
	.st0{fill:url(#SVGID_1_);}
	.st1{fill:url(#SVGID_2_);}
	.st2{opacity:0.1;enable-background:new    ;}
	.st3{fill:url(#SVGID_3_);}
	.st4{fill:url(#SVGID_4_);}
	.st5{fill:#0C59CA;}
	.st6{fill:#FFFFFF;}
	.st7{fill-rule:evenodd;clip-rule:evenodd;fill:#1565D7;}
	.st8{fill:#655E67;}
	.st9{fill:#CEDEE7;}
	.st10{fill:#8B808E;}
	.st11{fill-rule:evenodd;clip-rule:evenodd;fill:#CEDEE7;}
	.st12{fill:#CAD0D7;}
</style>
<linearGradient id="SVGID_1_" gradientUnits="userSpaceOnUse" x1="53.1425" y1="62.4275" x2="6.8575" y2="16.1425">
	<stop  offset="0" style="stop-color:#CEDEE7"/>
	<stop  offset="1" style="stop-color:#E4EBEF"/>
</linearGradient>
<rect x="2.6" y="20.4" class="st0" width="54.9" height="37.7"/>
<linearGradient id="SVGID_2_" gradientUnits="userSpaceOnUse" x1="0" y1="25.575" x2="60" y2="25.575">
	<stop  offset="0" style="stop-color:#5485E5"/>
	<stop  offset="1" style="stop-color:#3E75CE"/>
</linearGradient>
<rect y="20.4" class="st1" width="60" height="10.3"/>
<rect x="41.6" y="20.4" class="st2" width="10.3" height="37.7"/>
<rect x="8.1" y="20.4" class="st2" width="10.3" height="37.7"/>
<linearGradient id="SVGID_3_" gradientUnits="userSpaceOnUse" x1="49.6075" y1="55.0325" x2="10.3925" y2="15.8175">
	<stop  offset="0" style="stop-color:#CEDEE7"/>
	<stop  offset="1" style="stop-color:#E4EBEF"/>
</linearGradient>
<rect x="13.5" y="12.7" class="st3" width="33" height="45.4"/>
<linearGradient id="SVGID_4_" gradientUnits="userSpaceOnUse" x1="48.85" y1="19.78" x2="11.14" y2="19.78">
	<stop  offset="0" style="stop-color:#3E75CE"/>
	<stop  offset="1" style="stop-color:#5485E5"/>
</linearGradient>
<rect x="11.1" y="12.7" class="st4" width="37.7" height="14.1"/>
<rect x="15.9" y="18.3" class="st5" width="28.3" height="11.6"/>
<rect x="15.9" y="18.3" class="st6" width="10.7" height="11.6"/>
<path class="st7" d="M22,25.3h0.2V27c-0.1-0.5-0.1-1-0.1-1.5L22,25.3 M20.1,23.6L20.1,23.6l-0.3-0.3c-0.6,0-1.3-0.1-1.9-0.2v2.1
	c1.3,0.2,2.7,0.2,4,0.2l0,0L20.1,23.6z M20.1,23h2.1v-2h-2.1L20.1,23z M18.5,23.2l1.5,0.1l2,2h2.5v-2.2L18.5,23.2z M22,25.6
	c-0.7,0-1.4,0-2.1,0c0,0.6,0.1,1.3,0.2,1.9h2.1C22.1,26.9,22.1,25.9,22,25.6"/>
<rect x="29.1" y="22.6" class="st6" width="12.4" height="0.9"/>
<rect x="31.5" y="24.7" class="st6" width="7.7" height="0.9"/>
<rect x="21.6" y="41.4" class="st8" width="16.7" height="16.7"/>
<rect x="29.1" y="40.1" class="st9" width="1.7" height="18"/>
<rect x="20.1" y="38.8" class="st10" width="19.7" height="3"/>
<path class="st11" d="M27.5,51.7L27.5,51.7c-0.4,0-0.8-0.3-0.8-0.8v-2c0-0.4,0.3-0.8,0.8-0.8l0,0c0.4,0,0.7,0.3,0.8,0.8v2
	C28.3,51.4,27.9,51.7,27.5,51.7z"/>
<path class="st11" d="M32.5,51.7L32.5,51.7c-0.4,0-0.7-0.3-0.8-0.8v-2c0-0.4,0.3-0.7,0.8-0.8l0,0c0.4,0,0.8,0.3,0.8,0.8v2
	C33.2,51.4,32.9,51.7,32.5,51.7z"/>
<rect y="58.1" class="st12" width="60" height="1.9"/>
</svg>
