<svg id="Camada_1" data-name="Camada 1" width="60" height="60" xmlns="http://www.w3.org/2000/svg" viewBox="0 0 60 60"><defs><style>.cls-1,.cls-9{fill:#cedee7;}.cls-2{fill:#5485e5;}.cls-3{opacity:0.1;isolation:isolate;}.cls-4{fill:#0c59ca;}.cls-5{fill:#fff;}.cls-6{fill:#1565d7;}.cls-6,.cls-9{fill-rule:evenodd;}.cls-7{fill:#655e67;}.cls-8{fill:#8b808e;}.cls-10{fill:#cad0d7;}</style></defs><title>unidade-basica-saude</title><rect class="cls-1" x="2.57" y="20.43" width="54.86" height="37.71"/><rect class="cls-2" y="20.43" width="60" height="10.29"/><rect class="cls-3" x="41.57" y="20.43" width="10.29" height="37.71"/><rect class="cls-3" x="8.14" y="20.43" width="10.29" height="37.71"/><rect class="cls-1" x="13.5" y="12.71" width="33" height="45.43"/><rect class="cls-2" x="11.14" y="12.71" width="37.71" height="14.14"/><rect class="cls-4" x="15.86" y="18.28" width="28.29" height="11.57"/><rect class="cls-5" x="15.86" y="18.28" width="10.71" height="11.57"/><path class="cls-6" d="M22.05,25.34h.25V27a14.32,14.32,0,0,1-.11-1.48l-.14-.15m-1.92-1.76h0l-.28-.27a18.34,18.34,0,0,1-1.92-.19v2.11a28.52,28.52,0,0,0,4,.19h0Zm0-.58h2.11V21H20.14Zm-1.64.12,1.46.12,2,2h2.51V23.12Zm3.56,2.42a15,15,0,0,1-2.09,0,10,10,0,0,0,.18,1.89h2.1c-.1-.61-.18-1.6-.19-1.88"/><rect class="cls-5" x="29.14" y="22.57" width="12.43" height="0.86"/><rect class="cls-5" x="31.5" y="24.71" width="7.71" height="0.86"/><rect class="cls-7" x="21.64" y="41.43" width="16.71" height="16.71"/><rect class="cls-1" x="29.14" y="40.14" width="1.71" height="18"/><rect class="cls-8" x="20.14" y="38.85" width="19.71" height="3"/><path class="cls-9" d="M27.54,51.71h0a.75.75,0,0,1-.75-.75V49a.75.75,0,0,1,.75-.75h0a.76.76,0,0,1,.75.75V51A.76.76,0,0,1,27.54,51.71Z"/><path class="cls-9" d="M32.46,51.71h0a.76.76,0,0,1-.75-.75V49a.76.76,0,0,1,.75-.75h0a.75.75,0,0,1,.75.75V51A.75.75,0,0,1,32.46,51.71Z"/><rect class="cls-10" y="58.14" width="60" height="1.86"/></svg>